<svg width="44" height="45" viewBox="0 0 44 45" fill="none" xmlns="http://www.w3.org/2000/svg">
<path d="M37.125 38.1243V20.8508C37.1219 20.6605 37.0808 20.4728 37.0041 20.2986C36.9273 20.1245 36.8165 19.9674 36.6781 19.8368L22.9281 7.34146C22.6746 7.10956 22.3435 6.98096 22 6.98096C21.6565 6.98096 21.3254 7.10956 21.0719 7.34146L7.32187 19.8368C7.18351 19.9674 7.07269 20.1245 6.99595 20.2986C6.9192 20.4728 6.87808 20.6605 6.875 20.8508V38.1243" stroke="#4A60A1" stroke-width="2.75" stroke-linecap="round" stroke-linejoin="round"/>
<path d="M2.75 38.1235H41.25" stroke="#4A60A1" stroke-width="2.75" stroke-linecap="round" stroke-linejoin="round"/>
<path d="M26.125 38.1235V28.4985C26.125 28.1339 25.9801 27.7841 25.7223 27.5263C25.4644 27.2684 25.1147 27.1235 24.75 27.1235H19.25C18.8853 27.1235 18.5356 27.2684 18.2777 27.5263C18.0199 27.7841 17.875 28.1339 17.875 28.4985V38.1235" stroke="#4A60A1" stroke-width="2.75" stroke-linecap="round" stroke-linejoin="round"/>
</svg>
