<svg width="44" height="45" viewBox="0 0 44 45" fill="none" xmlns="http://www.w3.org/2000/svg">
<path d="M37.125 38.1179V20.8445C37.1219 20.6542 37.0808 20.4664 37.0041 20.2923C36.9273 20.1181 36.8165 19.9611 36.6781 19.8304L22.9281 7.33511C22.6746 7.10322 22.3435 6.97461 22 6.97461C21.6565 6.97461 21.3254 7.10322 21.0719 7.33511L7.32187 19.8304C7.18351 19.9611 7.07269 20.1181 6.99595 20.2923C6.9192 20.4664 6.87808 20.6542 6.875 20.8445V38.1179" stroke="#4A60A1" stroke-width="2.75" stroke-linecap="round" stroke-linejoin="round"/>
<path d="M2.75 38.1172H41.25" stroke="#4A60A1" stroke-width="2.75" stroke-linecap="round" stroke-linejoin="round"/>
<path d="M26.125 38.1172V28.4922C26.125 28.1275 25.9801 27.7778 25.7223 27.5199C25.4644 27.2621 25.1147 27.1172 24.75 27.1172H19.25C18.8853 27.1172 18.5356 27.2621 18.2777 27.5199C18.0199 27.7778 17.875 28.1275 17.875 28.4922V38.1172" stroke="#4A60A1" stroke-width="2.75" stroke-linecap="round" stroke-linejoin="round"/>
</svg>
