<svg width="78" height="79" viewBox="0 0 78 79" fill="none" xmlns="http://www.w3.org/2000/svg">
<path d="M68.8086 39.2526H68.7868C68.4911 39.2526 68.2063 39.1401 67.9905 38.9405L55.739 27.5816C55.2638 27.1408 55.2366 26.3989 55.6755 25.9254C56.1163 25.4502 56.8582 25.423 57.3317 25.8619L69.458 37.103C69.7736 37.3134 69.9804 37.6726 69.9804 38.0789C69.9804 38.7283 69.4561 39.2526 68.8086 39.2526ZM45.2562 17.4398C44.9714 17.4398 44.6848 17.3364 44.4599 17.1278C40.9535 13.879 38.4901 11.5934 38.4901 11.5934C38.1727 11.2995 38.0439 10.8551 38.1527 10.4361C38.2616 10.0171 38.5935 9.69418 39.0144 9.5926L39.2339 9.53999C39.8579 9.39125 40.4855 9.77218 40.6433 10.3926C41.5612 11.2433 43.5402 13.079 46.0543 15.4081C46.5296 15.8489 46.5568 16.5908 46.1178 17.0643C45.8856 17.3128 45.5718 17.4398 45.2562 17.4398Z" fill="#4A60A1"/>
<path d="M62.9297 70.4857C62.3238 70.4857 61.8105 70.0196 61.7615 69.4064C61.7416 69.1525 61.8032 68.9112 61.9248 68.7099V38.0722C61.9248 37.4246 62.449 36.9004 63.0966 36.9004C63.7442 36.9004 64.2684 37.4246 64.2684 38.0722V69.3012C64.2684 69.9125 63.7986 70.4204 63.1891 70.4694L63.0222 70.4821C62.9914 70.4839 62.9605 70.4857 62.9297 70.4857Z" fill="#4A60A1"/>
<path d="M57.6599 26.426C57.0142 26.426 56.4881 25.9036 56.4881 25.256L56.4664 14.9219C55.9711 14.7768 55.6156 14.3161 55.6247 13.7755C55.6374 13.1279 56.1761 12.6073 56.8183 12.6255L57.6581 12.64C58.2966 12.6509 58.8082 13.1715 58.8082 13.81L58.8317 25.2506C58.8336 25.8982 58.3093 26.4242 57.6618 26.426C57.6618 26.426 57.6618 26.426 57.6599 26.426Z" fill="#4A60A1"/>
<path d="M56.182 27.1817C56.182 27.9674 56.8181 28.6035 57.6038 28.6035C58.3889 28.6035 59.0274 27.9679 59.0274 27.1817V13.666C59.0274 12.8803 58.3913 12.2441 57.6056 12.2441H49.0546C48.269 12.2441 47.6328 12.8803 47.6328 13.666V19.2076C47.6328 19.9932 48.269 20.6294 49.0546 20.6294C49.8403 20.6294 50.4764 19.9932 50.4764 19.2076V15.0878H56.182V27.1817Z" fill="#1E2640" stroke="#1E2640" stroke-width="0.5"/>
<path d="M32.9501 69.3068V45.6561H45.2765V69.3086C45.2765 70.0942 45.9127 70.7304 46.6984 70.7304C47.4844 70.7304 48.1198 70.0922 48.122 69.3093V69.3086V44.2343C48.122 43.4487 47.4858 42.8125 46.7002 42.8125H31.5283C30.7426 42.8125 30.1064 43.4487 30.1064 44.2343V69.3068C30.1064 70.0924 30.7426 70.7286 31.5283 70.7286C32.3139 70.7286 32.9501 70.0924 32.9501 69.3068Z" fill="#1E2640" stroke="#1E2640" stroke-width="0.5"/>
<path d="M8.23161 37.0305L8.23138 37.0307C7.65312 37.5606 7.6106 38.4606 8.14159 39.0401C8.42133 39.3461 8.80667 39.5021 9.19116 39.5021C9.53416 39.5021 9.87781 39.3788 10.1504 39.1303L10.1507 39.1301L39.1057 12.6638L67.6464 39.1234L67.6467 39.1238C68.223 39.656 69.121 39.6232 69.6558 39.0466L69.6558 39.0466C70.1887 38.4719 70.1554 37.5718 69.579 37.0372L69.5789 37.0371L40.079 9.68852C39.537 9.18401 38.6983 9.1822 38.1526 9.68165L8.23161 37.0305Z" fill="#4A60A1" stroke="#4A60A1" stroke-width="0.5"/>
<path d="M14.8071 70.7325H63.1072L64.2772 69.3089H64.5272V69.3082V34.7531C64.5272 33.9674 63.8911 33.3313 63.1054 33.3313C62.3197 33.3313 61.6836 33.9674 61.6836 34.7531V67.8871H16.2289V33.6992C16.2289 32.9135 15.5927 32.2773 14.8071 32.2773C14.0214 32.2773 13.3853 32.9135 13.3853 33.6992V69.3107C13.3853 70.0963 14.0214 70.7325 14.8071 70.7325Z" fill="#4A60A1" stroke="#4A60A1" stroke-width="0.5"/>
</svg>
