<svg width="78" height="79" viewBox="0 0 78 79" fill="none" xmlns="http://www.w3.org/2000/svg">
<path d="M68.8087 39.2526H68.7869C68.4912 39.2526 68.2064 39.1401 67.9906 38.9405L55.7391 27.5816C55.2639 27.1408 55.2367 26.3989 55.6757 25.9254C56.1164 25.4502 56.8584 25.423 57.3318 25.8619L69.4581 37.103C69.7737 37.3134 69.9805 37.6726 69.9805 38.0789C69.9805 38.7283 69.4563 39.2526 68.8087 39.2526ZM45.2563 17.4398C44.9715 17.4398 44.6849 17.3364 44.46 17.1278C40.9536 13.879 38.4903 11.5934 38.4903 11.5934C38.1728 11.2995 38.044 10.8551 38.1529 10.4361C38.2617 10.0171 38.5937 9.69418 39.0145 9.5926L39.234 9.53999C39.858 9.39125 40.4856 9.77218 40.6434 10.3926C41.5613 11.2433 43.5403 13.079 46.0544 15.4081C46.5297 15.8489 46.5569 16.5908 46.1179 17.0643C45.8857 17.3128 45.5719 17.4398 45.2563 17.4398Z" fill="#4A60A1"/>
<path d="M62.9297 70.4857C62.3238 70.4857 61.8105 70.0196 61.7615 69.4064C61.7416 69.1525 61.8032 68.9112 61.9248 68.7099V38.0722C61.9248 37.4246 62.449 36.9004 63.0966 36.9004C63.7442 36.9004 64.2684 37.4246 64.2684 38.0722V69.3012C64.2684 69.9125 63.7986 70.4204 63.1891 70.4694L63.0222 70.4821C62.9914 70.4839 62.9605 70.4857 62.9297 70.4857Z" fill="#4A60A1"/>
<path d="M57.6602 26.426C57.0144 26.426 56.4884 25.9036 56.4884 25.256L56.4666 14.9219C55.9714 14.7768 55.6159 14.3161 55.6249 13.7755C55.6376 13.1279 56.1764 12.6073 56.8185 12.6255L57.6584 12.64C58.2969 12.6509 58.8084 13.1715 58.8084 13.81L58.832 25.2506C58.8338 25.8982 58.3096 26.4242 57.662 26.426C57.662 26.426 57.662 26.426 57.6602 26.426Z" fill="#4A60A1"/>
<path d="M56.1821 27.1817C56.1821 27.9674 56.8183 28.6035 57.6039 28.6035C58.3891 28.6035 59.0275 27.9679 59.0275 27.1817V13.666C59.0275 12.8803 58.3914 12.2441 57.6057 12.2441H49.0547C48.2691 12.2441 47.6329 12.8803 47.6329 13.666V19.2076C47.6329 19.9932 48.2691 20.6294 49.0547 20.6294C49.8404 20.6294 50.4766 19.9932 50.4766 19.2076V15.0878H56.1821V27.1817Z" fill="#1E2640" stroke="#1E2640" stroke-width="0.5"/>
<path d="M8.23174 37.0305L8.2315 37.0307C7.65324 37.5606 7.61072 38.4606 8.14171 39.0401C8.42145 39.3461 8.8068 39.5021 9.19129 39.5021C9.53429 39.5021 9.87793 39.3788 10.1506 39.1303L10.1508 39.1301L39.1058 12.6638L67.6465 39.1234L67.6468 39.1238C68.2231 39.656 69.1211 39.6232 69.6559 39.0466L69.6559 39.0466C70.1888 38.4719 70.1556 37.5718 69.5791 37.0372L69.5791 37.0371L40.0791 9.68852C39.5372 9.18401 38.6984 9.1822 38.1528 9.68165L8.23174 37.0305Z" fill="#4A60A1" stroke="#4A60A1" stroke-width="0.5"/>
<path d="M14.8073 70.7325H63.1074L64.2775 69.3089H64.5275V69.3082V34.7531C64.5275 33.9674 63.8913 33.3313 63.1056 33.3313C62.32 33.3313 61.6838 33.9674 61.6838 34.7531V67.8871H16.2291V33.6992C16.2291 32.9135 15.593 32.2773 14.8073 32.2773C14.0217 32.2773 13.3855 32.9135 13.3855 33.6992V69.3107C13.3855 70.0963 14.0217 70.7325 14.8073 70.7325Z" fill="#4A60A1" stroke="#4A60A1" stroke-width="0.5"/>
<path d="M50.6875 41.6465H27.3125C26.7257 41.6465 26.25 42.1222 26.25 42.709V59.709C26.25 60.2958 26.7257 60.7715 27.3125 60.7715H50.6875C51.2743 60.7715 51.75 60.2958 51.75 59.709V42.709C51.75 42.1222 51.2743 41.6465 50.6875 41.6465Z" stroke="#1E2640" stroke-width="2.5" stroke-linecap="round" stroke-linejoin="round"/>
<path d="M44.3125 41.6465V39.5215C44.3125 38.9579 44.0886 38.4174 43.6901 38.0189C43.2916 37.6204 42.7511 37.3965 42.1875 37.3965H35.8125C35.2489 37.3965 34.7084 37.6204 34.3099 38.0189C33.9114 38.4174 33.6875 38.9579 33.6875 39.5215V41.6465" stroke="#1E2640" stroke-width="2.5" stroke-linecap="round" stroke-linejoin="round"/>
<path d="M51.75 48.8574C47.8749 51.0985 43.4765 52.276 39 52.2707C34.5227 52.2824 30.1226 51.1044 26.25 48.8574" stroke="#1E2640" stroke-width="2.5" stroke-linecap="round" stroke-linejoin="round"/>
<path d="M37.4062 48.0215H40.5938" stroke="#1E2640" stroke-width="2.5" stroke-linecap="round" stroke-linejoin="round"/>
</svg>
