<svg width="78" height="79" viewBox="0 0 78 79" fill="none" xmlns="http://www.w3.org/2000/svg">
<path d="M68.8087 38.7526H68.7869C68.4912 38.7526 68.2064 38.6401 67.9906 38.4405L55.7391 27.0816C55.2639 26.6408 55.2367 25.8989 55.6757 25.4254C56.1164 24.9502 56.8584 24.923 57.3318 25.3619L69.4581 36.603C69.7737 36.8134 69.9805 37.1726 69.9805 37.5789C69.9805 38.2283 69.4563 38.7526 68.8087 38.7526ZM45.2563 16.9398C44.9715 16.9398 44.6849 16.8364 44.46 16.6278C40.9536 13.379 38.4903 11.0934 38.4903 11.0934C38.1728 10.7995 38.044 10.3551 38.1529 9.93609C38.2617 9.51706 38.5937 9.19418 39.0145 9.0926L39.234 9.03999C39.858 8.89125 40.4856 9.27218 40.6434 9.89255C41.5613 10.7433 43.5403 12.579 46.0544 14.9081C46.5297 15.3489 46.5569 16.0908 46.1179 16.5643C45.8857 16.8128 45.5719 16.9398 45.2563 16.9398Z" fill="#4A60A1"/>
<path d="M62.9297 69.9857C62.3238 69.9857 61.8105 69.5196 61.7615 68.9064C61.7416 68.6525 61.8032 68.4112 61.9248 68.2099V37.5722C61.9248 36.9246 62.449 36.4004 63.0966 36.4004C63.7442 36.4004 64.2684 36.9246 64.2684 37.5722V68.8012C64.2684 69.4125 63.7986 69.9204 63.1891 69.9694L63.0222 69.9821C62.9914 69.9839 62.9605 69.9857 62.9297 69.9857Z" fill="#4A60A1"/>
<path d="M57.6602 25.926C57.0144 25.926 56.4884 25.4036 56.4884 24.756L56.4666 14.4219C55.9714 14.2768 55.6159 13.8161 55.6249 13.2755C55.6376 12.6279 56.1764 12.1073 56.8185 12.1255L57.6584 12.14C58.2969 12.1509 58.8084 12.6715 58.8084 13.31L58.832 24.7506C58.8338 25.3982 58.3096 25.9242 57.662 25.926C57.662 25.926 57.662 25.926 57.6602 25.926Z" fill="#4A60A1"/>
<path d="M56.1821 26.6817C56.1821 27.4674 56.8183 28.1035 57.6039 28.1035C58.3891 28.1035 59.0275 27.4679 59.0275 26.6817V13.166C59.0275 12.3803 58.3914 11.7441 57.6057 11.7441H49.0547C48.2691 11.7441 47.6329 12.3803 47.6329 13.166V18.7076C47.6329 19.4932 48.2691 20.1294 49.0547 20.1294C49.8404 20.1294 50.4766 19.4932 50.4766 18.7076V14.5878H56.1821V26.6817Z" fill="#1E2640" stroke="#1E2640" stroke-width="0.5"/>
<path d="M8.23174 36.5305L8.2315 36.5307C7.65324 37.0606 7.61072 37.9606 8.14171 38.5401C8.42145 38.8461 8.8068 39.0021 9.19129 39.0021C9.53429 39.0021 9.87793 38.8788 10.1506 38.6303L10.1508 38.6301L39.1058 12.1638L67.6465 38.6234L67.6468 38.6238C68.2231 39.156 69.1211 39.1232 69.6559 38.5466L69.6559 38.5466C70.1888 37.9719 70.1556 37.0718 69.5791 36.5372L69.5791 36.5371L40.0791 9.18852C39.5372 8.68401 38.6984 8.6822 38.1528 9.18165L8.23174 36.5305Z" fill="#4A60A1" stroke="#4A60A1" stroke-width="0.5"/>
<path d="M14.8073 70.2325H63.1074L64.2775 68.8089H64.5275V68.8082V34.2531C64.5275 33.4674 63.8913 32.8313 63.1056 32.8313C62.32 32.8313 61.6838 33.4674 61.6838 34.2531V67.3871H16.2291V33.1992C16.2291 32.4135 15.593 31.7773 14.8073 31.7773C14.0217 31.7773 13.3855 32.4135 13.3855 33.1992V68.8107C13.3855 69.5963 14.0217 70.2325 14.8073 70.2325Z" fill="#4A60A1" stroke="#4A60A1" stroke-width="0.5"/>
<path d="M37.875 52.2461C42.2242 52.2461 45.75 48.7203 45.75 44.3711C45.75 40.0219 42.2242 36.4961 37.875 36.4961C33.5258 36.4961 30 40.0219 30 44.3711C30 48.7203 33.5258 52.2461 37.875 52.2461Z" stroke="#1E2640" stroke-width="2" stroke-linecap="round" stroke-linejoin="round"/>
<path d="M43.4437 49.9395L48 54.4957" stroke="#1E2640" stroke-width="2" stroke-linecap="round" stroke-linejoin="round"/>
</svg>
