<svg width="24" height="25" viewBox="0 0 24 25" fill="none" xmlns="http://www.w3.org/2000/svg">
<path d="M12 13.7446C13.6569 13.7446 15 12.4015 15 10.7446C15 9.08777 13.6569 7.74463 12 7.74463C10.3431 7.74463 9 9.08777 9 10.7446C9 12.4015 10.3431 13.7446 12 13.7446Z" stroke="white" stroke-width="1.5" stroke-linecap="round" stroke-linejoin="round"/>
<path d="M19.5 10.7446C19.5 17.4946 12 22.7446 12 22.7446C12 22.7446 4.5 17.4946 4.5 10.7446C4.5 8.75551 5.29018 6.84785 6.6967 5.44133C8.10322 4.03481 10.0109 3.24463 12 3.24463C13.9891 3.24463 15.8968 4.03481 17.3033 5.44133C18.7098 6.84785 19.5 8.75551 19.5 10.7446V10.7446Z" stroke="white" stroke-width="1.5" stroke-linecap="round" stroke-linejoin="round"/>
</svg>
