<svg width="25" height="25" viewBox="0 0 25 25" fill="none" xmlns="http://www.w3.org/2000/svg">
<path d="M12.5 13.7446C14.1569 13.7446 15.5 12.4015 15.5 10.7446C15.5 9.08777 14.1569 7.74463 12.5 7.74463C10.8431 7.74463 9.5 9.08777 9.5 10.7446C9.5 12.4015 10.8431 13.7446 12.5 13.7446Z" stroke="white" stroke-width="1.5" stroke-linecap="round" stroke-linejoin="round"/>
<path d="M20 10.7446C20 17.4946 12.5 22.7446 12.5 22.7446C12.5 22.7446 5 17.4946 5 10.7446C5 8.75551 5.79018 6.84785 7.1967 5.44133C8.60322 4.03481 10.5109 3.24463 12.5 3.24463C14.4891 3.24463 16.3968 4.03481 17.8033 5.44133C19.2098 6.84785 20 8.75551 20 10.7446V10.7446Z" stroke="white" stroke-width="1.5" stroke-linecap="round" stroke-linejoin="round"/>
</svg>
