<svg width="16" height="16" viewBox="0 0 16 16" fill="none" xmlns="http://www.w3.org/2000/svg">
<path d="M4.16008 10.0172C5.16201 10.0172 5.97422 9.20497 5.97422 8.20305C5.97422 7.20113 5.16201 6.38892 4.16008 6.38892C3.15816 6.38892 2.34595 7.20113 2.34595 8.20305C2.34595 9.20497 3.15816 10.0172 4.16008 10.0172Z" stroke="#4A60A1" stroke-width="0.936687" stroke-linecap="round" stroke-linejoin="round"/>
<path d="M10.5097 14.099C11.5116 14.099 12.3238 13.2868 12.3238 12.2848C12.3238 11.2829 11.5116 10.4707 10.5097 10.4707C9.50777 10.4707 8.69556 11.2829 8.69556 12.2848C8.69556 13.2868 9.50777 14.099 10.5097 14.099Z" stroke="#4A60A1" stroke-width="0.936687" stroke-linecap="round" stroke-linejoin="round"/>
<path d="M10.5097 5.9354C11.5116 5.9354 12.3238 5.12319 12.3238 4.12127C12.3238 3.11935 11.5116 2.30713 10.5097 2.30713C9.50777 2.30713 8.69556 3.11935 8.69556 4.12127C8.69556 5.12319 9.50777 5.9354 10.5097 5.9354Z" stroke="#4A60A1" stroke-width="0.936687" stroke-linecap="round" stroke-linejoin="round"/>
<path d="M8.98477 5.10205L5.6853 7.22232" stroke="#4A60A1" stroke-width="0.936687" stroke-linecap="round" stroke-linejoin="round"/>
<path d="M5.6853 9.18384L8.98477 11.3041" stroke="#4A60A1" stroke-width="0.936687" stroke-linecap="round" stroke-linejoin="round"/>
</svg>
