<svg width="20" height="21" viewBox="0 0 20 21" fill="none" xmlns="http://www.w3.org/2000/svg">
<path d="M8.07031 9.91408C8.07031 9.91408 9.96264 9.77542 9.96264 7.58512C9.96264 5.39466 8.41448 4.32568 6.4534 4.32568H0.000244141V16.5662H6.4534C6.4534 16.5662 10.3928 16.6891 10.3928 12.9534C10.3928 12.9534 10.5646 9.91408 8.07031 9.91408V9.91408ZM5.9889 6.5013H6.4534C6.4534 6.5013 7.33057 6.5013 7.33057 7.77488C7.33057 9.0483 6.8147 9.23293 6.22956 9.23293H2.84358V6.5013H5.9889V6.5013ZM6.27104 14.3907H2.84358V11.1196H6.4534C6.4534 11.1196 7.76078 11.1026 7.76078 12.8006C7.76078 14.2323 6.78429 14.3799 6.27104 14.3907V14.3907ZM15.6467 7.44004C10.8776 7.44004 10.8818 12.1432 10.8818 12.1432C10.8818 12.1432 10.5546 16.8223 15.6467 16.8223C15.6467 16.8223 19.8901 17.0616 19.8901 13.5673H17.7078C17.7078 13.5673 17.7805 14.8832 15.7195 14.8832C15.7195 14.8832 13.5368 15.0276 13.5368 12.7536H19.9628C19.9628 12.7536 20.666 7.44004 15.6467 7.44004ZM13.5129 11.1196C13.5129 11.1196 13.7793 9.23289 15.6952 9.23289C17.6106 9.23289 17.5866 11.1196 17.5866 11.1196H13.5129ZM18.095 6.55414H12.9786V5.04681H18.095V6.55414Z" fill="#4A60A1"/>
</svg>
