<svg width="20" height="21" viewBox="0 0 20 21" fill="none" xmlns="http://www.w3.org/2000/svg">
<g clip-path="url(#clip0_308_2058)">
<path d="M0 3.31542C0 2.642 0.225232 2.08645 0.675676 1.64875C1.12612 1.21104 1.71172 0.992188 2.43243 0.992188C3.14029 0.992188 3.71299 1.20766 4.15058 1.63865C4.60102 2.08309 4.82625 2.6622 4.82625 3.37602C4.82625 4.02249 4.60747 4.56119 4.16988 4.99218C3.71944 5.43662 3.12741 5.65885 2.39382 5.65885H2.37452C1.66666 5.65885 1.09396 5.43662 0.656371 4.99218C0.218784 4.54774 0 3.98881 0 3.31542ZM0.250965 20.9922V7.49723H4.53668V20.9922H0.250965ZM6.9112 20.9922H11.1969V13.4568C11.1969 12.9854 11.2484 12.6218 11.3514 12.3659C11.5315 11.908 11.805 11.5208 12.1718 11.2043C12.5386 10.8878 12.9987 10.7295 13.5521 10.7295C14.9936 10.7295 15.7143 11.7464 15.7143 13.78V20.9922H20V13.2548C20 11.2615 19.5496 9.74975 18.6486 8.71945C17.7477 7.68915 16.5573 7.17399 15.0772 7.17399C13.417 7.17399 12.1236 7.92147 11.1969 9.41642V9.45682H11.1776L11.1969 9.41642V7.49723H6.9112C6.93693 7.9282 6.94981 9.26825 6.94981 11.5174C6.94981 13.7666 6.93693 16.9248 6.9112 20.9922Z" fill="#4A60A1"/>
</g>
<defs>
<clipPath id="clip0_308_2058">
<rect width="20" height="20" fill="white" transform="translate(0 0.992188)"/>
</clipPath>
</defs>
</svg>
