<svg width="20" height="21" viewBox="0 0 20 21" fill="none" xmlns="http://www.w3.org/2000/svg">
<g clip-path="url(#clip0_308_2056)">
<path d="M0 10.9922C0 9.17885 0.44668 7.50553 1.34 5.97219C2.23334 4.43885 3.44668 3.22553 4.98 2.33219C6.51334 1.43885 8.18668 0.992188 10 0.992188C11.8133 0.992188 13.4867 1.43885 15.02 2.33219C16.5533 3.22553 17.7667 4.43885 18.66 5.97219C19.5533 7.50553 20 9.17885 20 10.9922C20 12.8055 19.5533 14.4788 18.66 16.0122C17.7667 17.5455 16.5533 18.7588 15.02 19.6522C13.4867 20.5455 11.8133 20.9922 10 20.9922C8.18668 20.9922 6.51334 20.5455 4.98 19.6522C3.44668 18.7588 2.23334 17.5455 1.34 16.0122C0.44668 14.4788 0 12.8055 0 10.9922ZM1.66 10.9922C1.66 13.0722 2.36 14.9055 3.76 16.4922C4.4 15.2388 5.41334 14.0455 6.8 12.9122C8.18668 11.7788 9.54 11.0655 10.86 10.7722C10.66 10.3055 10.4667 9.88553 10.28 9.51219C7.98668 10.2455 5.50668 10.6122 2.84 10.6122C2.32 10.6122 1.93334 10.6055 1.68 10.5922C1.68 10.6455 1.67668 10.7122 1.67 10.7922C1.66334 10.8722 1.66 10.9388 1.66 10.9922ZM1.92 8.93219C2.21334 8.95885 2.64668 8.97219 3.22 8.97219C5.44668 8.97219 7.56 8.67219 9.56 8.07219C8.54668 6.27219 7.43334 4.77219 6.22 3.57219C5.16668 4.10553 4.26334 4.84553 3.51 5.79219C2.75668 6.73885 2.22668 7.78553 1.92 8.93219ZM4.9 17.5722C6.40668 18.7455 8.10668 19.3322 10 19.3322C10.9867 19.3322 11.9667 19.1455 12.94 18.7722C12.6733 16.4922 12.1533 14.2855 11.38 12.1522C10.1533 12.4188 8.91668 13.0922 7.67 14.1722C6.42334 15.2522 5.5 16.3855 4.9 17.5722ZM7.96 2.93219C9.13334 4.14553 10.22 5.65885 11.22 7.47219C13.0333 6.71219 14.4 5.74553 15.32 4.57219C13.7733 3.29219 12 2.65219 10 2.65219C9.32 2.65219 8.64 2.74553 7.96 2.93219ZM11.94 8.89219C12.14 9.31885 12.3667 9.85885 12.62 10.5122C13.6067 10.4188 14.68 10.3722 15.84 10.3722C16.6667 10.3722 17.4867 10.3922 18.3 10.4322C18.1933 8.61885 17.54 7.00553 16.34 5.59219C15.4733 6.88553 14.0067 7.98553 11.94 8.89219ZM13.12 11.9122C13.8 13.8855 14.26 15.9122 14.5 17.9922C15.5533 17.3122 16.4133 16.4388 17.08 15.3722C17.7467 14.3055 18.1467 13.1522 18.28 11.9122C17.3067 11.8455 16.42 11.8122 15.62 11.8122C14.8867 11.8122 14.0533 11.8455 13.12 11.9122Z" fill="#4A60A1"/>
</g>
<defs>
<clipPath id="clip0_308_2056">
<rect width="20" height="20" fill="white" transform="translate(0 0.992188)"/>
</clipPath>
</defs>
</svg>
