<svg width="20" height="21" viewBox="0 0 20 21" fill="none" xmlns="http://www.w3.org/2000/svg">
<g clip-path="url(#clip0_308_2060)">
<path d="M6.66721 10.9922C6.66721 9.15131 8.15913 7.65858 10 7.65858C11.8409 7.65858 13.3336 9.15131 13.3336 10.9922C13.3336 12.8331 11.8409 14.3258 10 14.3258C8.15913 14.3258 6.66721 12.8331 6.66721 10.9922ZM4.86511 10.9922C4.86511 13.8282 7.16397 16.1271 10 16.1271C12.836 16.1271 15.1349 13.8282 15.1349 10.9922C15.1349 8.15616 12.836 5.85729 10 5.85729C7.16397 5.85729 4.86511 8.15616 4.86511 10.9922ZM14.1381 5.65374C14.1381 6.3161 14.6753 6.85406 15.3385 6.85406C16.0008 6.85406 16.5388 6.3161 16.5388 5.65374C16.5388 4.99138 16.0016 4.45422 15.3385 4.45422C14.6753 4.45422 14.1381 4.99138 14.1381 5.65374ZM5.95961 19.1319C4.98465 19.0875 4.45477 18.9251 4.10259 18.7878C3.6357 18.6061 3.30291 18.3896 2.95234 18.0398C2.60259 17.6901 2.3853 17.3573 2.20436 16.8904C2.06704 16.5382 1.90469 16.0083 1.86026 15.0334C1.81179 13.9793 1.8021 13.6626 1.8021 10.9922C1.8021 8.32175 1.8126 8.00592 1.86026 6.95099C1.90469 5.97603 2.06785 5.44695 2.20436 5.09396C2.38611 4.62708 2.60259 4.29429 2.95234 3.94372C3.3021 3.59396 3.6349 3.37668 4.10259 3.19574C4.45477 3.05842 4.98465 2.89606 5.95961 2.85164C7.01373 2.80317 7.33037 2.79348 10 2.79348C12.6704 2.79348 12.9863 2.80398 14.0412 2.85164C15.0162 2.89606 15.5452 3.05923 15.8982 3.19574C16.3651 3.37668 16.6979 3.59396 17.0485 3.94372C17.3982 4.29348 17.6147 4.62708 17.7964 5.09396C17.9338 5.44615 18.0961 5.97603 18.1406 6.95099C18.189 8.00592 18.1987 8.32175 18.1987 10.9922C18.1987 13.6618 18.189 13.9785 18.1406 15.0334C18.0961 16.0083 17.933 16.5382 17.7964 16.8904C17.6147 17.3573 17.3982 17.6901 17.0485 18.0398C16.6987 18.3896 16.3651 18.6061 15.8982 18.7878C15.546 18.9251 15.0162 19.0875 14.0412 19.1319C12.9871 19.1804 12.6704 19.1901 10 19.1901C7.33037 19.1901 7.01373 19.1804 5.95961 19.1319V19.1319ZM5.87722 1.05277C4.8126 1.10123 4.08562 1.27006 3.44992 1.51723C2.79241 1.77248 2.23506 2.11497 1.67851 2.6707C1.12278 3.22644 0.780291 3.78379 0.52504 4.44211C0.277868 5.07781 0.109047 5.80479 0.0605816 6.86941C0.0113086 7.93564 0 8.27652 0 10.9922C0 13.7079 0.0113086 14.0487 0.0605816 15.115C0.109047 16.1796 0.277868 16.9066 0.52504 17.5423C0.780291 18.1998 1.12197 18.7579 1.67851 19.3137C2.23425 19.8694 2.7916 20.2111 3.44992 20.4671C4.08643 20.7143 4.8126 20.8831 5.87722 20.9316C6.94427 20.9801 7.28433 20.9922 10 20.9922C12.7165 20.9922 13.0565 20.9809 14.1228 20.9316C15.1874 20.8831 15.9144 20.7143 16.5501 20.4671C17.2076 20.2111 17.7649 19.8694 18.3215 19.3137C18.8772 18.7579 19.2189 18.1998 19.475 17.5423C19.7221 16.9066 19.8918 16.1796 19.9394 15.115C19.9879 14.0479 19.9992 13.7079 19.9992 10.9922C19.9992 8.27652 19.9879 7.93564 19.9394 6.86941C19.891 5.80479 19.7221 5.07781 19.475 4.44211C19.2189 3.78459 18.8772 3.22724 18.3215 2.6707C17.7658 2.11497 17.2076 1.77248 16.5509 1.51723C15.9144 1.27006 15.1874 1.10043 14.1236 1.05277C13.0574 1.0043 12.7165 0.992188 10.0008 0.992188C7.28433 0.992188 6.94427 1.0035 5.87722 1.05277" fill="#4A60A1"/>
</g>
<defs>
<clipPath id="clip0_308_2060">
<rect width="20" height="20" fill="white" transform="translate(0 0.992188)"/>
</clipPath>
</defs>
</svg>
